<mxfile host="app.diagrams.net" agent="Mozilla/5.0 (Windows NT 10.0; Win64; x64) AppleWebKit/537.36 (KHTML, like Gecko) Chrome/136.0.0.0 Safari/537.36" version="27.0.6">
  <diagram name="Страница — 1" id="4lfBLvP_RrGvpzm5hbAt">
    <mxGraphModel dx="818" dy="563" grid="1" gridSize="10" guides="1" tooltips="1" connect="1" arrows="1" fold="1" page="1" pageScale="1" pageWidth="1169" pageHeight="827" math="0" shadow="0">
      <root>
        <mxCell id="0" />
        <mxCell id="1" parent="0" />
        <mxCell id="SzSnpcaT_9BJPCUjSm3E-22" value="/manage_currency" style="shape=umlLifeline;perimeter=lifelinePerimeter;whiteSpace=wrap;html=1;container=1;dropTarget=0;collapsible=0;recursiveResize=0;outlineConnect=0;portConstraint=eastwest;newEdgeStyle={&quot;curved&quot;:0,&quot;rounded&quot;:0};" vertex="1" parent="1">
          <mxGeometry x="140" y="400" width="100" height="420" as="geometry" />
        </mxCell>
        <mxCell id="SzSnpcaT_9BJPCUjSm3E-27" value="" style="html=1;points=[[0,0,0,0,5],[0,1,0,0,-5],[1,0,0,0,5],[1,1,0,0,-5]];perimeter=orthogonalPerimeter;outlineConnect=0;targetShapes=umlLifeline;portConstraint=eastwest;newEdgeStyle={&quot;curved&quot;:0,&quot;rounded&quot;:0};" vertex="1" parent="SzSnpcaT_9BJPCUjSm3E-22">
          <mxGeometry x="45" y="70" width="10" height="80" as="geometry" />
        </mxCell>
        <mxCell id="SzSnpcaT_9BJPCUjSm3E-24" value="" style="shape=umlLifeline;perimeter=lifelinePerimeter;whiteSpace=wrap;html=1;container=1;dropTarget=0;collapsible=0;recursiveResize=0;outlineConnect=0;portConstraint=eastwest;newEdgeStyle={&quot;curved&quot;:0,&quot;rounded&quot;:0};participant=umlActor;" vertex="1" parent="1">
          <mxGeometry x="50" y="400" width="20" height="420" as="geometry" />
        </mxCell>
        <mxCell id="SzSnpcaT_9BJPCUjSm3E-25" value="" style="html=1;points=[[0,0,0,0,5],[0,1,0,0,-5],[1,0,0,0,5],[1,1,0,0,-5]];perimeter=orthogonalPerimeter;outlineConnect=0;targetShapes=umlLifeline;portConstraint=eastwest;newEdgeStyle={&quot;curved&quot;:0,&quot;rounded&quot;:0};" vertex="1" parent="SzSnpcaT_9BJPCUjSm3E-24">
          <mxGeometry x="5" y="70" width="10" height="80" as="geometry" />
        </mxCell>
        <mxCell id="SzSnpcaT_9BJPCUjSm3E-37" value="" style="html=1;points=[[0,0,0,0,5],[0,1,0,0,-5],[1,0,0,0,5],[1,1,0,0,-5]];perimeter=orthogonalPerimeter;outlineConnect=0;targetShapes=umlLifeline;portConstraint=eastwest;newEdgeStyle={&quot;curved&quot;:0,&quot;rounded&quot;:0};" vertex="1" parent="SzSnpcaT_9BJPCUjSm3E-24">
          <mxGeometry x="5" y="180" width="10" height="80" as="geometry" />
        </mxCell>
        <mxCell id="SzSnpcaT_9BJPCUjSm3E-49" value="" style="html=1;points=[[0,0,0,0,5],[0,1,0,0,-5],[1,0,0,0,5],[1,1,0,0,-5]];perimeter=orthogonalPerimeter;outlineConnect=0;targetShapes=umlLifeline;portConstraint=eastwest;newEdgeStyle={&quot;curved&quot;:0,&quot;rounded&quot;:0};" vertex="1" parent="SzSnpcaT_9BJPCUjSm3E-24">
          <mxGeometry x="5" y="310" width="10" height="80" as="geometry" />
        </mxCell>
        <mxCell id="SzSnpcaT_9BJPCUjSm3E-26" value="Пользователь" style="text;html=1;align=center;verticalAlign=middle;resizable=0;points=[];autosize=1;strokeColor=none;fillColor=none;" vertex="1" parent="1">
          <mxGeometry x="10" y="408" width="100" height="30" as="geometry" />
        </mxCell>
        <mxCell id="SzSnpcaT_9BJPCUjSm3E-28" value="запрос на добавление&amp;nbsp;&lt;div&gt;валюты&lt;/div&gt;" style="html=1;verticalAlign=bottom;endArrow=block;curved=0;rounded=0;" edge="1" parent="1">
          <mxGeometry width="80" relative="1" as="geometry">
            <mxPoint x="65" y="480" as="sourcePoint" />
            <mxPoint x="189.5" y="480" as="targetPoint" />
          </mxGeometry>
        </mxCell>
        <mxCell id="SzSnpcaT_9BJPCUjSm3E-30" value="курс и код валюты" style="html=1;verticalAlign=bottom;endArrow=block;curved=0;rounded=0;exitX=0.5;exitY=0.375;exitDx=0;exitDy=0;exitPerimeter=0;" edge="1" parent="1" source="SzSnpcaT_9BJPCUjSm3E-25">
          <mxGeometry width="80" relative="1" as="geometry">
            <mxPoint x="70" y="500" as="sourcePoint" />
            <mxPoint x="190" y="500" as="targetPoint" />
          </mxGeometry>
        </mxCell>
        <mxCell id="SzSnpcaT_9BJPCUjSm3E-31" value="Микросервис currency_manager" style="shape=umlLifeline;perimeter=lifelinePerimeter;whiteSpace=wrap;html=1;container=1;dropTarget=0;collapsible=0;recursiveResize=0;outlineConnect=0;portConstraint=eastwest;newEdgeStyle={&quot;curved&quot;:0,&quot;rounded&quot;:0};" vertex="1" parent="1">
          <mxGeometry x="300" y="400" width="100" height="420" as="geometry" />
        </mxCell>
        <mxCell id="SzSnpcaT_9BJPCUjSm3E-32" value="" style="html=1;points=[[0,0,0,0,5],[0,1,0,0,-5],[1,0,0,0,5],[1,1,0,0,-5]];perimeter=orthogonalPerimeter;outlineConnect=0;targetShapes=umlLifeline;portConstraint=eastwest;newEdgeStyle={&quot;curved&quot;:0,&quot;rounded&quot;:0};" vertex="1" parent="SzSnpcaT_9BJPCUjSm3E-31">
          <mxGeometry x="45" y="70" width="10" height="80" as="geometry" />
        </mxCell>
        <mxCell id="SzSnpcaT_9BJPCUjSm3E-35" value="" style="html=1;points=[[0,0,0,0,5],[0,1,0,0,-5],[1,0,0,0,5],[1,1,0,0,-5]];perimeter=orthogonalPerimeter;outlineConnect=0;targetShapes=umlLifeline;portConstraint=eastwest;newEdgeStyle={&quot;curved&quot;:0,&quot;rounded&quot;:0};" vertex="1" parent="SzSnpcaT_9BJPCUjSm3E-31">
          <mxGeometry x="45" y="180" width="10" height="40" as="geometry" />
        </mxCell>
        <mxCell id="SzSnpcaT_9BJPCUjSm3E-36" value="обработка данных запроса" style="html=1;align=left;spacingLeft=2;endArrow=block;rounded=0;edgeStyle=orthogonalEdgeStyle;curved=0;rounded=0;" edge="1" target="SzSnpcaT_9BJPCUjSm3E-35" parent="SzSnpcaT_9BJPCUjSm3E-31" source="SzSnpcaT_9BJPCUjSm3E-32">
          <mxGeometry relative="1" as="geometry">
            <mxPoint x="50" y="160" as="sourcePoint" />
            <Array as="points">
              <mxPoint x="80" y="110" />
              <mxPoint x="80" y="190" />
            </Array>
          </mxGeometry>
        </mxCell>
        <mxCell id="SzSnpcaT_9BJPCUjSm3E-34" value="Передача запроса&amp;nbsp;&lt;div&gt;вместе с кодом&amp;nbsp;&lt;span style=&quot;background-color: light-dark(#ffffff, var(--ge-dark-color, #121212)); color: light-dark(rgb(0, 0, 0), rgb(255, 255, 255));&quot;&gt;и курсом&lt;/span&gt;&lt;/div&gt;" style="html=1;verticalAlign=bottom;endArrow=block;curved=0;rounded=0;" edge="1" parent="1" target="SzSnpcaT_9BJPCUjSm3E-31">
          <mxGeometry width="80" relative="1" as="geometry">
            <mxPoint x="195" y="480" as="sourcePoint" />
            <mxPoint x="320" y="480" as="targetPoint" />
          </mxGeometry>
        </mxCell>
        <mxCell id="SzSnpcaT_9BJPCUjSm3E-38" value="успешное сохранение курса валют" style="html=1;verticalAlign=bottom;endArrow=open;dashed=1;endSize=8;curved=0;rounded=0;" edge="1" parent="1" source="SzSnpcaT_9BJPCUjSm3E-35" target="SzSnpcaT_9BJPCUjSm3E-37">
          <mxGeometry relative="1" as="geometry">
            <mxPoint x="340" y="590" as="sourcePoint" />
            <mxPoint x="70" y="600" as="targetPoint" />
          </mxGeometry>
        </mxCell>
        <mxCell id="SzSnpcaT_9BJPCUjSm3E-39" value="/convert" style="shape=umlLifeline;perimeter=lifelinePerimeter;whiteSpace=wrap;html=1;container=1;dropTarget=0;collapsible=0;recursiveResize=0;outlineConnect=0;portConstraint=eastwest;newEdgeStyle={&quot;curved&quot;:0,&quot;rounded&quot;:0};" vertex="1" parent="1">
          <mxGeometry x="535" y="390" width="100" height="430" as="geometry" />
        </mxCell>
        <mxCell id="SzSnpcaT_9BJPCUjSm3E-40" value="" style="html=1;points=[[0,0,0,0,5],[0,1,0,0,-5],[1,0,0,0,5],[1,1,0,0,-5]];perimeter=orthogonalPerimeter;outlineConnect=0;targetShapes=umlLifeline;portConstraint=eastwest;newEdgeStyle={&quot;curved&quot;:0,&quot;rounded&quot;:0};" vertex="1" parent="SzSnpcaT_9BJPCUjSm3E-39">
          <mxGeometry x="45" y="230" width="10" height="80" as="geometry" />
        </mxCell>
        <mxCell id="SzSnpcaT_9BJPCUjSm3E-42" value="запрос на конвертацию валюты с указанием валюты и суммы для конвертации" style="html=1;verticalAlign=bottom;endArrow=block;curved=0;rounded=0;" edge="1" parent="1">
          <mxGeometry width="80" relative="1" as="geometry">
            <mxPoint x="65" y="650" as="sourcePoint" />
            <mxPoint x="580" y="650" as="targetPoint" />
          </mxGeometry>
        </mxCell>
        <mxCell id="SzSnpcaT_9BJPCUjSm3E-43" value="Микросервис &quot;конвертер&quot;" style="shape=umlLifeline;perimeter=lifelinePerimeter;whiteSpace=wrap;html=1;container=1;dropTarget=0;collapsible=0;recursiveResize=0;outlineConnect=0;portConstraint=eastwest;newEdgeStyle={&quot;curved&quot;:0,&quot;rounded&quot;:0};" vertex="1" parent="1">
          <mxGeometry x="680" y="390" width="100" height="430" as="geometry" />
        </mxCell>
        <mxCell id="SzSnpcaT_9BJPCUjSm3E-44" value="" style="html=1;points=[[0,0,0,0,5],[0,1,0,0,-5],[1,0,0,0,5],[1,1,0,0,-5]];perimeter=orthogonalPerimeter;outlineConnect=0;targetShapes=umlLifeline;portConstraint=eastwest;newEdgeStyle={&quot;curved&quot;:0,&quot;rounded&quot;:0};" vertex="1" parent="SzSnpcaT_9BJPCUjSm3E-43">
          <mxGeometry x="45" y="230" width="10" height="80" as="geometry" />
        </mxCell>
        <mxCell id="SzSnpcaT_9BJPCUjSm3E-46" value="" style="html=1;points=[[0,0,0,0,5],[0,1,0,0,-5],[1,0,0,0,5],[1,1,0,0,-5]];perimeter=orthogonalPerimeter;outlineConnect=0;targetShapes=umlLifeline;portConstraint=eastwest;newEdgeStyle={&quot;curved&quot;:0,&quot;rounded&quot;:0};" vertex="1" parent="SzSnpcaT_9BJPCUjSm3E-43">
          <mxGeometry x="45" y="340.00000000000006" width="10" height="40" as="geometry" />
        </mxCell>
        <mxCell id="SzSnpcaT_9BJPCUjSm3E-47" value="обрабатывает&amp;nbsp;&lt;div&gt;данные&lt;/div&gt;" style="html=1;align=left;spacingLeft=2;endArrow=block;rounded=0;edgeStyle=orthogonalEdgeStyle;curved=0;rounded=0;" edge="1" target="SzSnpcaT_9BJPCUjSm3E-46" parent="SzSnpcaT_9BJPCUjSm3E-43" source="SzSnpcaT_9BJPCUjSm3E-44">
          <mxGeometry relative="1" as="geometry">
            <mxPoint x="85" y="270.0044827586207" as="sourcePoint" />
            <Array as="points">
              <mxPoint x="90" y="270" />
              <mxPoint x="90" y="360" />
            </Array>
            <mxPoint x="110" y="319.9655172413793" as="targetPoint" />
          </mxGeometry>
        </mxCell>
        <mxCell id="SzSnpcaT_9BJPCUjSm3E-45" value="Запрос с указанными&amp;nbsp;&lt;div&gt;даннными&lt;/div&gt;" style="html=1;verticalAlign=bottom;endArrow=block;curved=0;rounded=0;" edge="1" parent="1" source="SzSnpcaT_9BJPCUjSm3E-40" target="SzSnpcaT_9BJPCUjSm3E-43">
          <mxGeometry width="80" relative="1" as="geometry">
            <mxPoint x="600" y="640" as="sourcePoint" />
            <mxPoint x="680" y="640" as="targetPoint" />
          </mxGeometry>
        </mxCell>
        <mxCell id="SzSnpcaT_9BJPCUjSm3E-48" value="ответ с результатом конвертации" style="html=1;verticalAlign=bottom;endArrow=open;dashed=1;endSize=8;curved=0;rounded=0;" edge="1" parent="1" source="SzSnpcaT_9BJPCUjSm3E-46" target="SzSnpcaT_9BJPCUjSm3E-24">
          <mxGeometry relative="1" as="geometry">
            <mxPoint x="680" y="750" as="sourcePoint" />
            <mxPoint x="600" y="750" as="targetPoint" />
          </mxGeometry>
        </mxCell>
      </root>
    </mxGraphModel>
  </diagram>
</mxfile>
